<?xml version="1.0" encoding="UTF-8"?>
<svg id="Layer_3" data-name="Layer 3" xmlns="http://www.w3.org/2000/svg" viewBox="0 0 870.78 870.78">
  <defs>
    <style>
      .cls-1 {
        fill: none;
      }
    </style>
  </defs>
  <g id="Layer_1" data-name="Layer 1">
    <g>
      <g>
        <path d="M326.97,387.64c-90.41,0-163.68,73.08-163.68,163.23s73.27,163.23,163.68,163.23,163.68-73.08,163.68-163.23-73.27-163.26-163.68-163.26"/>
        <path d="M575.38,300.7H163.68c.84-.97,1.29-1.56,1.8-2.08,44.52-44.6,89.03-89.21,133.62-133.74.92-.92,2.58-1.56,3.9-1.56,136.09-.07,272.18-.07,408.28-.07.87,0,1.74.07,2.95.13v3.48c0,43.6.01,87.19,0,130.78-.03,91.14-.1,182.28-.08,273.42,0,2.28-.61,3.88-2.29,5.49-44.92,43.08-89.78,86.21-134.65,129.33-.45.42-.91.83-1.81,1.66v-406.84Z"/>
      </g>
      <rect class="cls-1" x="0" y="0" width="870.78" height="870.78"/>
    </g>
  </g>
</svg>